<?xml version="1.0" encoding="utf-8"?>
<!-- Generator: Adobe Illustrator 16.0.3, SVG Export Plug-In . SVG Version: 6.00 Build 0)  -->
<!DOCTYPE svg PUBLIC "-//W3C//DTD SVG 1.1//EN" "http://www.w3.org/Graphics/SVG/1.1/DTD/svg11.dtd">
<svg version="1.1" id="Layer_1" xmlns="http://www.w3.org/2000/svg" xmlns:xlink="http://www.w3.org/1999/xlink" x="0px" y="0px"
	 width="205.43px" height="127.936px" viewBox="0 0 205.43 127.936" enable-background="new 0 0 205.43 127.936"
	 xml:space="preserve">
<g>
	<g>
		<path fill-rule="evenodd" clip-rule="evenodd" d="M62.826,71.472c0.666-1.712,1.88-3.683,2.598-5.039
			c1.459-2.757,3.039-5.454,4.649-8.127c0.427-0.71,1.063-1.38,1.761-1.816c0.568-0.355,1.587-0.671,2.016-0.396
			c0.532,0.34,0.818,1.287,0.918,2.013c0.092,0.668-0.066,1.45-0.347,2.079c-1.772,3.967-3.309,8.066-6.089,11.5
			c-0.179,0.222-0.352,0.448-0.543,0.656c-0.723,0.781-1.614,1.739-2.636,1.139C64.421,73.053,63.339,72.348,62.826,71.472z
			 M73.745,58.507c-0.925,0-1.194,0.349-1.498,0.684c-2.852,3.136-4.238,6.634-6.183,10.249c-0.285,0.533-0.575,2.244,0.196,3.015
			C68.81,71.004,74.208,60.814,73.745,58.507z"/>
		<path fill-rule="evenodd" clip-rule="evenodd" d="M151.125,37.76c-0.295,0.392-0.627,0.762-0.879,1.181
			c-2.542,4.226-4.962,8.529-7.63,12.674c-3.026,4.7-7.132,8.104-12.694,9.475c-2.63,0.647-5.188,0.728-7.433-1.13
			c-0.755-0.625-1.217-0.249-1.806,0.298c-1.632,1.513-3.242,3.072-5.018,4.402c-3.83,2.865-7.654,2.594-11.025-0.75
			c-0.888-0.881-1.244-0.796-2.072,0.1c-2.089,2.258-4.286,4.429-6.568,6.493c-2.446,2.212-6.551,2.908-9.546,0.409
			c-0.76-0.634-1.28-0.465-1.94,0.181c-2.182,2.132-4.439,4.143-7.601,4.77c-1.485,0.295-2.827,0.283-4.018-0.753
			c-0.708-0.615-1.15-0.336-1.776,0.262c-1.494,1.427-2.992,2.924-4.729,4.007c-1.821,1.136-3.912,1.26-5.692-0.331
			c-1.036-0.926-1.632-0.627-2.358,0.409c-1.062,1.515-2.261,2.919-4.098,3.618c-2.993,1.139-5.389,0-7.562-1.92
			c-1.817-1.607-2.092-3.793-1.456-5.905c0.955-3.17,2.256-6.234,3.416-9.343c0.256-0.69,0.535-1.373,0.816-2.094
			c-2.621-0.362-5.676,1.481-6.84,4.104c-1.405,3.167-2.544,6.466-4.135,9.534c-2.069,3.988-4.27,7.94-6.813,11.635
			c-1.233,1.791-3.259,3.127-5.129,4.364c-1.823,1.204-3.802,0.746-5.663-0.311c-3.381-1.918-5.006-4.945-5.543-8.655
			c-1.124-7.771,3.483-15.817,10.759-18.742c1.971-0.791,3.966-1.315,5.913,0.266c1.667,1.354,1.698,2.006-0.042,3.215
			c-1.285,0.892-2.631,1.732-3.776,2.783c-4.295,3.942-6.553,8.887-6.815,14.701c-0.035,0.781,0.397,1.582,0.612,2.374
			c0.76-0.4,1.81-0.609,2.231-1.238c1.997-2.987,4.071-5.965,5.661-9.174c4.813-9.711,8.487-19.899,12.114-30.099
			c0.299-0.842,0.076-1.394-0.631-1.959c-0.778-0.622-1.405-1.433-2.098-2.162c0.899-0.523,1.741-1.214,2.708-1.536
			c2.381-0.795,4.807-1.467,7.239-2.095c1.326-0.343,3.205,0.49,3.763,1.688c0.219,0.468,0.137,1.22-0.08,1.726
			c-1.808,4.231-3.687,8.431-5.516,12.653c-0.169,0.391-0.132,0.871-0.191,1.31c0.4-0.028,0.813-0.004,1.197-0.096
			c0.645-0.154,1.263-0.422,1.909-0.572c1.446-0.336,2.409-1.155,3.019-2.536c1.457-3.3,2.958-6.581,4.525-9.829
			c0.542-1.123,0.393-1.863-0.659-2.501c-0.482-0.292-0.923-0.671-1.333-1.062c-0.941-0.895-0.86-1.766,0.372-2.15
			c2.94-0.919,5.923-1.707,8.905-2.49c1.499-0.394,2.668,0.502,3.444,1.525c0.397,0.523,0.238,1.743-0.073,2.477
			c-1.238,2.926-2.685,5.765-3.964,8.675c-3.778,8.6-7.516,17.218-11.262,25.832c-0.18,0.413-0.288,0.858-0.43,1.288
			c0.116,0.111,0.232,0.224,0.348,0.336c0.469-0.351,1.025-0.63,1.394-1.066c2.404-2.857,4.214-6.067,5.632-9.519
			c1.619-3.946,3.998-7.437,6.732-10.682c2.213-2.626,5.065-3.416,8.152-2.283c0.892,0.327,1.181-0.117,1.518-0.76
			c1.24-2.366,4.615-3.089,6.781-1.529c0.924,0.665,1.13,1.374,0.726,2.44c-1.762,4.66-3.475,9.338-5.194,14.014
			c-0.167,0.454-0.257,0.937-0.382,1.406c0.103,0.069,0.207,0.139,0.31,0.208c0.353-0.256,0.741-0.476,1.05-0.776
			c0.714-0.694,1.368-1.453,2.087-2.142c1.065-1.022,1.552-2.233,1.868-3.702c2.296-10.649,5.724-20.886,11.813-30.039
			c1.195-1.796,2.713-3.426,4.298-4.9c1.537-1.43,3.466-2.369,5.596-1.262c2.814,1.462,3.735,3.318,3.325,6.274
			c-0.683,4.93-2.6,9.412-5.167,13.619c-2.759,4.522-6.226,8.37-10.982,10.91c-0.388,0.208-0.854,0.606-0.941,0.993
			c-0.532,2.35-1.076,4.707-1.388,7.092c-0.169,1.294,0.611,1.729,1.803,1.119c0.962-0.494,1.905-1.101,2.701-1.828
			c3.749-3.428,6.723-7.522,9.242-11.872c1.229-2.122,1.587-4.748,2.333-7.147c2.097-6.757,5.093-13.107,9.059-18.946
			c1.331-1.959,3.197-3.611,5.028-5.154c1.256-1.058,2.905-1.442,4.531-0.5c1.92,1.112,3.5,2.434,3.439,4.963
			c-0.087,3.601-1.32,6.884-2.751,10.097c-2.087,4.686-4.865,8.92-8.744,12.334c-1.203,1.059-2.527,2.021-3.921,2.806
			c-1.093,0.617-1.764,1.384-1.966,2.584c-0.313,1.867-0.729,3.729-0.872,5.609c-0.124,1.641,0.664,2.059,2.116,1.216
			c0.894-0.519,1.722-1.181,2.492-1.876c0.807-0.73,1.527-1.56,2.253-2.376c1.711-1.921,3.115-3.935,3.819-6.542
			c1.137-4.205,3.187-8.013,6.245-11.213c1.707-1.786,3.721-3.053,6.008-3.965c2.647-1.056,4.905-0.517,6.93,1.407
			c0.943,0.896,1.245,1.993,1.149,3.232c-0.353,4.546-2.777,7.965-6.266,10.564c-1.903,1.418-4.25,2.238-6.38,3.358
			c-0.477,0.25-1.037,0.539-1.283,0.968c-0.218,0.379-0.215,1.07-0.001,1.449c0.148,0.262,0.837,0.355,1.257,0.304
			c2.7-0.329,4.923-1.626,6.821-3.526c3.816-3.821,6.375-8.478,8.792-13.229c0.301-0.593,0.586-1.196,0.926-1.766
			c0.607-1.019,0.836-1.859,0.142-3.106c-1.144-2.053,0.368-4.306,2.647-4.519c0.545-0.051,1.212-0.5,1.533-0.966
			c1.14-1.659,2.168-1.991,3.971-1.027c0.542,0.289,1.194,0.563,1.514,1.036c0.923,1.364,2.248,1.258,3.629,1.37
			c1.125,0.09,2.274,0.448,3.314,0.91c1.246,0.553,1.079,1.397,0.447,2.543c-2.125,3.855-4.108,7.789-6.079,11.727
			c-0.257,0.513-0.119,1.224-0.165,1.844c0.551-0.294,1.286-0.453,1.624-0.906c2.15-2.887,4.366-5.744,6.27-8.793
			c2.836-4.544,5.406-9.255,8.145-13.862c0.907-1.526,2.438-0.583,3.643-0.567c0.662,0.008,1.313,0.865,1.966,1.344
			c0.022,0.017,0.012,0.092,0.003,0.138c-0.721,3.475,0.955,6.211,2.564,9.065c0.785,1.391,0.855,3.174,1.327,4.757
			c0.191,0.642,0.434,1.441,0.923,1.793c5.058,3.646,5.548,7.902,3.262,13.758c-2.163,5.538-6.44,9.306-11.283,12.469
			c-6.23,4.067-13.154,6.535-20.247,8.574c-15.147,4.354-30.301,8.681-45.451,13.026c-15.377,4.409-30.779,8.735-46.111,13.296
			c-4.251,1.265-8.339,3.13-12.403,4.941c-1.468,0.655-2.741,1.858-3.929,2.993c-0.937,0.896-1.697,0.383-2.424-0.033
			c-0.35-0.199-0.686-0.933-0.593-1.318c1.305-5.385,3.112-10.558,6.558-15.02c3.36-4.352,7.987-6.581,13.129-8.003
			c18.664-5.164,37.328-10.329,55.982-15.524c14.221-3.96,28.458-7.862,42.622-12.018c4.251-1.248,8.328-3.152,12.381-4.981
			c1.515-0.683,2.827-1.913,4.065-3.072c0.808-0.756,1.356-1.808,1.932-2.78c0.176-0.295,0.058-0.766,0.074-1.156
			c-0.332,0.119-0.685,0.199-0.992,0.363c-1.293,0.688-2.532,1.498-3.868,2.084c-3.404,1.492-6.594,1.177-9.33-1.5
			c-0.813-0.796-1.261-0.701-1.851,0.225c-1.404,2.2-2.829,4.375-5.146,5.803c-3.334,2.053-6.362,1.851-9.233-0.789
			c-1.778-1.634-1.833-3.778-1.22-5.816c0.678-2.253,1.782-4.378,2.691-6.563c0.162-0.388,0.284-0.792,0.424-1.188
			C151.456,37.921,151.29,37.841,151.125,37.76z M120.337,56.512c1.327,2.534,2.912,3.411,5.483,3.099
			c4.995-0.606,9.05-2.965,12.323-6.741c3.702-4.271,6.313-9.251,9.006-14.155c1.145-2.083,2.28-3.358,4.901-2.867
			c1.573,0.293,1.594,0.066,0.88,1.599c-1.317,2.828-2.695,5.64-3.764,8.563c-0.651,1.779-0.506,3.75,1.141,5.104
			c1.716,1.41,3.582,0.784,5.39,0.074c0.176-0.069,0.341-0.167,0.511-0.252c2.116-1.062,3.546-2.829,4.817-4.742
			c3.6-5.417,7.182-10.846,10.787-16.261c0.188-0.283,0.515-0.474,0.777-0.708c0.173,0.259,0.376,0.502,0.514,0.779
			c0.506,1.017,0.971,2.055,1.487,3.066c1.445,2.825,0.611,4.595-2.398,5.07c-2.202,0.347-4.271,0.997-5.751,2.804
			c-0.884,1.077-1.414,2.305-0.861,3.694c0.569,1.429,1.809,2.185,3.246,2.176c3.885-0.022,7.243-1.333,9.692-4.518
			c0.33-0.43,0.689-0.838,1.036-1.255c0.435,0.529,0.93,1.021,1.279,1.602c0.206,0.341,0.209,0.818,0.255,1.24
			c0.32,2.867-1.21,4.903-3.153,6.671c-2.75,2.503-6.069,4.103-9.542,5.253c-5.76,1.906-11.577,3.653-17.409,5.327
			c-10.533,3.023-21.09,5.96-31.646,8.902c-8.543,2.381-17.103,4.705-25.649,7.075c-10.103,2.802-20.226,5.537-30.284,8.494
			c-2.921,0.859-5.85,2.054-8.421,3.662c-5.025,3.141-7.579,8.213-9.466,13.64c-0.45,1.292-0.816,2.614-1.22,3.923
			c1-0.351,1.633-0.907,2.329-1.368c4.207-2.79,8.903-4.471,13.701-5.862c13.543-3.93,27.106-7.796,40.664-11.681
			c16.205-4.642,32.404-9.312,48.622-13.907c7.839-2.22,15.56-4.734,22.498-9.114c4.968-3.138,9.344-6.961,11.527-12.619
			c2.326-6.03,1.304-9.686-3.425-12.988c-0.394-0.274-0.729-0.888-0.769-1.371c-0.22-2.614-0.98-5.001-2.466-7.187
			c-1.146-1.686-1.671-3.591-1.684-5.654c-0.002-0.435-0.359-1.132-0.704-1.245c-0.725-0.236-1.471-0.318-2.054,0.644
			c-4.077,6.732-8.178,13.451-12.399,20.092c-0.837,1.316-2.124,2.427-3.409,3.343c-0.643,0.458-2.017,0.641-2.575,0.252
			c-0.548-0.381-0.501-1.642-0.667-2.526c-0.04-0.21,0.111-0.455,0.174-0.684c1.252-4.603,3.768-8.583,6.201-12.607
			c0.225-0.372,0.32-0.823,0.475-1.237c-0.445-0.103-0.887-0.277-1.335-0.296c-1.802-0.073-3.607-0.111-5.411-0.136
			c-1.099-0.016-1.596-0.326-0.838-1.425c0.565-0.82-0.038-1.331-0.653-1.193c-0.725,0.161-1.486,0.688-1.969,1.272
			c-0.567,0.685-0.996,1.32-2.015,1.314c-1.986-0.012-3.253,2.119-2.024,3.676c0.879,1.111,0.536,1.836,0.026,2.767
			c-0.319,0.581-0.6,1.184-0.902,1.774c-2.621,5.118-5.3,10.2-9.489,14.273c-2.224,2.162-4.831,3.514-7.999,3.489
			c-1.645-0.013-2.711-0.878-2.92-2.181c-0.264-1.657,0.378-2.39,2.102-3.167c2.147-0.967,4.348-1.954,6.229-3.336
			c2.812-2.067,4.748-4.915,5.633-8.348c0.356-1.384,0.592-2.896-0.614-4.018c-1.227-1.142-2.695-0.897-4.16-0.41
			c-2.389,0.793-4.468,2.063-6.207,3.888c-3.117,3.27-5.12,7.185-6.37,11.464c-1.419,4.863-4.806,8.105-8.794,10.747
			c-2.385,1.581-4.729,0.174-4.647-2.682c0.063-2.204,0.619-4.396,0.975-6.59c0.179-1.108,0.814-1.814,1.827-2.363
			c1.244-0.672,2.441-1.479,3.528-2.383c4.177-3.477,7.05-7.927,9.24-12.834c1.336-2.994,2.582-6.037,2.585-9.408
			c0.001-1.31-0.072-2.587-1.389-3.36c-1.421-0.835-2.822-0.371-3.841,0.523c-1.801,1.579-3.656,3.232-4.977,5.198
			c-3.905,5.814-6.851,12.126-8.896,18.844c-0.703,2.309-1.07,4.824-2.251,6.863c-2.567,4.434-5.56,8.635-9.415,12.086
			c-1.064,0.952-2.401,1.739-3.75,2.194c-1.887,0.637-3.403-0.293-3.387-2.257c0.021-2.473,0.593-4.941,0.959-7.407
			c0.181-1.214,0.862-1.995,2.008-2.552c1.14-0.553,2.212-1.307,3.194-2.118c5.357-4.429,8.817-10.16,10.974-16.673
			c0.704-2.128,1.178-4.44,1.168-6.667c-0.012-2.702-2.046-3.636-4.497-2.454c-2.594,1.25-4.264,3.442-5.788,5.742
			c-6.123,9.239-9.523,19.568-11.87,30.281c-0.759,3.465-3.329,5.268-5.857,7.112c-1.11,0.81-2.336,0.004-2.316-1.434
			c0.015-1.107,0.303-2.25,0.679-3.303c1.596-4.47,3.259-8.917,4.924-13.362c0.332-0.885-0.006-1.127-0.823-1.093
			c-1.844,0.079-3.494,0.418-4.133,2.525c-0.169,0.557-0.43,1.525-1.35,0.826c-2.665-2.021-6.403-0.38-7.976,1.718
			c-1.929,2.574-3.892,5.171-5.429,7.981c-2.064,3.777-3.498,7.902-6.265,11.288c-0.596,0.727-1.251,1.434-1.986,2.014
			c-0.917,0.725-2.044,0.937-3.054,0.257c-1.092-0.736-0.591-1.797-0.215-2.709c2.063-5.003,4.07-10.033,6.262-14.979
			c3.019-6.816,6.194-13.562,9.272-20.352c0.256-0.568,0.283-1.241,0.417-1.865c-0.677-0.066-1.402-0.322-2.025-0.166
			c-2.479,0.619-4.934,1.344-7.379,2.088c-0.387,0.118-0.682,0.538-1.019,0.817c0.363,0.262,0.69,0.623,1.094,0.769
			c2.066,0.743,2.4,1.35,1.496,3.37c-1.685,3.764-3.366,7.534-5.226,11.211c-0.437,0.864-1.484,1.614-2.421,1.99
			c-2.151,0.865-4.404,1.48-6.626,2.163c-0.325,0.1-0.708,0.017-1.063,0.017c0.044-0.354,0.009-0.744,0.146-1.06
			c2.316-5.357,4.661-10.703,6.973-16.063c0.169-0.394,0.335-1.029,0.146-1.274c-0.203-0.26-0.874-0.342-1.267-0.234
			c-2.88,0.783-5.743,1.626-8.603,2.481c-0.233,0.07-0.398,0.371-0.594,0.563c0.261,0.237,0.483,0.554,0.788,0.7
			c2.072,0.99,2.388,1.601,1.576,3.764c-2.615,6.967-5.074,14.003-7.979,20.85c-2.291,5.396-5.087,10.582-7.805,15.785
			c-0.705,1.35-1.844,2.54-2.989,3.578c-1.546,1.402-3.476,0.846-4.24-1.105c-0.252-0.645-0.381-1.383-0.377-2.079
			c0.045-7.121,2.944-12.833,8.595-17.148c0.792-0.604,1.659-1.108,2.448-1.717c0.265-0.204,0.395-0.584,0.586-0.884
			c-0.346-0.196-0.72-0.597-1.033-0.554c-1.208,0.163-2.492,0.261-3.576,0.756c-5.567,2.547-8.999,6.925-10.122,12.902
			c-0.69,3.675-0.184,7.324,2.066,10.48c1.864,2.616,4.563,3.14,7.243,1.378c1.292-0.849,2.494-1.911,3.529-3.064
			c3.011-3.355,5.143-7.286,6.989-11.364c1.547-3.416,2.977-6.885,4.456-10.332c0.873-2.033,2.29-3.432,4.464-4.072
			c1.912-0.563,3.785-1.253,5.681-1.871c0.246-0.08,0.525-0.055,1.007-0.098c-0.178,0.548-0.279,0.938-0.43,1.308
			c-1.181,2.899-2.464,5.762-3.532,8.703c-0.754,2.078-1.559,4.232-1.741,6.402c-0.294,3.498,2.345,5.5,5.742,4.563
			c1.089-0.301,2.201-0.969,3.001-1.769c1.268-1.265,2.302-2.769,3.387-4.208c0.242-0.321,0.291-0.788,0.428-1.186
			c0.178,0.18,0.357,0.359,0.535,0.541c0.862,3.569,2.518,4.351,5.782,2.687c0.672-0.342,1.384-0.715,1.89-1.25
			c1.301-1.376,2.497-2.854,3.736-4.289c0.248-0.289,0.506-0.566,0.861-0.962c0.698,3.178,1.854,3.852,4.8,2.776
			c1.273-0.465,2.506-1.154,3.601-1.956c1.295-0.949,2.483-2.071,3.599-3.23c0.775-0.805,1.188-0.834,1.819,0.141
			c0.365,0.563,1.013,1.026,1.634,1.324c2.64,1.261,5.015,0.454,7.166-1.188c3.385-2.585,6.211-5.717,8.667-9.19
			c0.272-0.386,0.599-0.733,0.9-1.099c0.127,0.051,0.255,0.103,0.383,0.155c0,0.502,0.002,1.006-0.001,1.509
			c-0.012,1.682,0.809,2.922,2.171,3.776c2.042,1.28,4.287,1.054,6.079-0.188c2.588-1.793,4.877-4.021,7.279-6.081
			C119.594,57.417,119.892,57.005,120.337,56.512z M170.364,37.236c0.084,0.125,0.167,0.25,0.251,0.376
			c0.591-0.068,1.186-0.111,1.771-0.209c2.118-0.359,2.893-2.276,1.575-3.98c-0.156-0.202-0.885-0.29-0.973-0.165
			C172.069,34.553,171.228,35.902,170.364,37.236z"/>
		<path fill-rule="evenodd" clip-rule="evenodd" d="M170.083,21.087c-0.771,2.739-1.863,5.709-4.157,8.04
			c-0.325,0.331-1.269,0.415-1.709,0.189c-0.735-0.376-1.768-0.853-1.375-2.014c0.387-1.141,0.121-2.071-0.408-3.103
			c-1.099-2.148,0.255-5.804,2.444-6.9C166.924,16.276,170.222,18.438,170.083,21.087z M164.042,27.222
			c1.785-2.325,3.209-4.856,3.629-7.811c0.199-1.395-1.119-2.145-2.402-1.547c-1.804,0.839-3.016,4.027-2.305,5.903
			C163.366,24.825,163.645,25.931,164.042,27.222z"/>
		<path fill-rule="evenodd" clip-rule="evenodd" d="M90.765,52.865c0.658-1.703,1.283-3.417,1.98-5.103
			c2.367-5.712,5.295-11.126,8.754-16.25c0.343-0.507,0.709-1.036,1.177-1.414c0.404-0.325,0.968-0.448,1.461-0.661
			c0.199,0.495,0.623,1.023,0.556,1.479c-0.255,1.724-0.455,3.506-1.065,5.12c-2.104,5.571-4.733,10.868-9.224,14.975
			c-0.947,0.866-2.074,1.537-3.117,2.298C91.114,53.161,90.939,53.013,90.765,52.865z M95.364,48.525
			c2.506-1.333,8.148-12.003,7.521-14.196C100.09,38.956,97.474,43.404,95.364,48.525z"/>
		<path fill-rule="evenodd" clip-rule="evenodd" d="M110.317,47.447c0.379-1.046,0.744-2.097,1.138-3.137
			c2.386-6.287,5.552-12.173,9.226-17.792c0.513-0.786,1.169-1.494,1.844-2.152c0.255-0.249,0.835-0.442,1.11-0.315
			c0.281,0.128,0.559,0.707,0.51,1.04c-0.278,1.915-0.399,3.906-1.043,5.704c-1.985,5.543-4.771,10.652-9.171,14.703
			c-0.953,0.876-2.086,1.556-3.136,2.325C110.636,47.698,110.477,47.572,110.317,47.447z M122.664,29.168
			c-3.075,4.204-5.591,8.724-7.393,13.635C118.84,38.875,121.279,34.319,122.664,29.168z"/>
		<path fill-rule="evenodd" clip-rule="evenodd" d="M136.675,39.557c-0.473,0.89-1.056,2.186-1.811,3.371
			c-1.754,2.753-4.186,4.733-7.227,5.933c-0.319,0.126-0.712,0.064-1.07,0.09c0.024-0.348-0.037-0.731,0.087-1.039
			c1.26-3.101,2.978-5.928,5.404-8.25c0.795-0.761,1.814-1.376,2.841-1.785C135.993,37.442,136.781,38.098,136.675,39.557z
			 M131.049,45.187c1.676-0.165,3.749-2.728,3.386-4.22C133.306,42.374,132.177,43.781,131.049,45.187z"/>
		<path fill-rule="evenodd" clip-rule="evenodd" d="M173.367,39.394c0.135,0.393,0.491,0.894,0.362,1.149
			c-0.818,1.625-1.832,3.17-3.596,3.859c-0.624,0.243-1.667,0.168-2.141-0.221c-0.331-0.271-0.251-1.448,0.046-2.007
			C169.069,40.239,171.136,40.034,173.367,39.394z"/>
		<g>
			<path fill="#C2AD7E" d="M180.214,39.29c-0.394-0.274-0.729-0.888-0.769-1.371c-0.22-2.614-0.98-5.001-2.466-7.187
				c-1.146-1.686-1.671-3.591-1.684-5.654c-0.002-0.435-0.359-1.132-0.704-1.245c-0.725-0.236-1.471-0.318-2.054,0.644
				c-4.077,6.732-8.178,13.451-12.399,20.092c-0.837,1.316-2.124,2.427-3.409,3.343c-0.643,0.458-2.017,0.641-2.575,0.252
				c-0.548-0.381-0.501-1.642-0.667-2.526c-0.04-0.21,0.111-0.455,0.174-0.684c1.252-4.603,3.768-8.583,6.201-12.607
				c0.225-0.372,0.32-0.823,0.475-1.237c-0.445-0.103-0.887-0.277-1.335-0.296c-1.802-0.073-3.607-0.111-5.411-0.136
				c-1.099-0.016-1.596-0.326-0.838-1.425c0.565-0.82-0.038-1.331-0.653-1.193c-0.725,0.161-1.486,0.688-1.969,1.272
				c-0.567,0.685-0.996,1.32-2.015,1.314c-1.986-0.012-3.253,2.119-2.024,3.676c0.879,1.111,0.536,1.836,0.026,2.767
				c-0.319,0.581-0.6,1.184-0.902,1.774c-2.621,5.118-5.3,10.2-9.489,14.273c-2.224,2.162-4.831,3.514-7.999,3.489
				c-1.645-0.013-2.711-0.878-2.92-2.181c-0.264-1.657,0.378-2.39,2.102-3.167c2.147-0.967,4.348-1.954,6.229-3.336
				c2.812-2.067,4.748-4.915,5.633-8.348c0.356-1.384,0.592-2.896-0.614-4.018c-1.227-1.142-2.695-0.897-4.16-0.41
				c-2.389,0.793-4.468,2.063-6.207,3.888c-3.117,3.27-5.12,7.185-6.37,11.464c-1.419,4.863-4.806,8.105-8.794,10.747
				c-2.385,1.581-4.729,0.174-4.647-2.682c0.063-2.204,0.619-4.396,0.975-6.59c0.179-1.108,0.814-1.814,1.827-2.363
				c1.244-0.672,2.441-1.479,3.528-2.383c4.177-3.477,7.05-7.927,9.24-12.834c1.336-2.994,2.582-6.037,2.585-9.408
				c0.001-1.31-0.072-2.587-1.389-3.36c-1.421-0.835-2.822-0.371-3.841,0.523c-1.801,1.579-3.656,3.232-4.977,5.198
				c-3.905,5.814-6.851,12.126-8.896,18.844c-0.703,2.309-1.07,4.824-2.251,6.863c-2.567,4.434-5.56,8.635-9.415,12.086
				c-1.064,0.952-2.401,1.739-3.75,2.194c-1.887,0.637-3.403-0.293-3.387-2.257c0.021-2.473,0.593-4.941,0.959-7.407
				c0.181-1.214,0.862-1.995,2.008-2.552c1.14-0.553,2.212-1.307,3.194-2.118c5.357-4.429,8.817-10.16,10.974-16.673
				c0.704-2.128,1.178-4.44,1.168-6.667c-0.012-2.702-2.046-3.636-4.497-2.454c-2.594,1.25-4.264,3.442-5.788,5.742
				c-6.123,9.239-9.523,19.568-11.87,30.281c-0.759,3.465-3.329,5.268-5.857,7.112c-1.11,0.81-2.336,0.004-2.316-1.434
				c0.015-1.107,0.303-2.25,0.679-3.303c1.596-4.47,3.259-8.917,4.924-13.362c0.332-0.885-0.006-1.127-0.823-1.093
				c-1.844,0.079-3.494,0.418-4.133,2.525c-0.169,0.557-0.43,1.525-1.35,0.826c-2.665-2.021-6.403-0.38-7.976,1.718
				c-1.929,2.574-3.892,5.171-5.429,7.981c-2.064,3.777-3.498,7.902-6.265,11.288c-0.596,0.727-1.251,1.434-1.986,2.014
				c-0.917,0.725-2.044,0.937-3.054,0.257c-1.092-0.736-0.591-1.797-0.215-2.709c2.063-5.003,4.07-10.033,6.262-14.979
				c3.019-6.816,6.194-13.562,9.272-20.352c0.256-0.568,0.283-1.241,0.417-1.865c-0.677-0.066-1.402-0.322-2.025-0.166
				c-2.479,0.619-4.934,1.344-7.379,2.088c-0.387,0.118-0.682,0.538-1.019,0.817c0.363,0.262,0.69,0.623,1.094,0.769
				c2.066,0.743,2.4,1.35,1.496,3.37c-1.685,3.764-3.366,7.534-5.226,11.211c-0.437,0.864-1.484,1.614-2.421,1.99
				c-2.151,0.865-4.404,1.48-6.626,2.163c-0.325,0.1-0.708,0.017-1.063,0.017c0.044-0.354,0.009-0.744,0.146-1.06
				c2.316-5.357,4.661-10.703,6.973-16.063c0.169-0.394,0.335-1.029,0.146-1.274c-0.203-0.26-0.874-0.342-1.267-0.234
				c-2.88,0.783-5.743,1.626-8.603,2.481c-0.233,0.07-0.398,0.371-0.594,0.563c0.261,0.237,0.483,0.554,0.788,0.7
				c2.072,0.99,2.388,1.601,1.576,3.764c-2.615,6.967-5.074,14.003-7.979,20.85c-2.291,5.396-5.087,10.582-7.805,15.785
				c-0.705,1.35-1.844,2.54-2.989,3.578c-1.546,1.402-3.476,0.846-4.24-1.105c-0.252-0.645-0.381-1.383-0.377-2.079
				c0.045-7.121,2.944-12.833,8.595-17.148c0.792-0.604,1.659-1.108,2.448-1.717c0.265-0.204,0.395-0.584,0.586-0.884
				c-0.346-0.196-0.72-0.597-1.033-0.554c-1.208,0.163-2.492,0.261-3.576,0.756c-5.567,2.547-8.999,6.925-10.122,12.902
				c-0.69,3.675-0.184,7.324,2.066,10.48c1.864,2.616,4.563,3.14,7.243,1.378c1.292-0.849,2.494-1.911,3.529-3.064
				c3.011-3.355,5.143-7.286,6.989-11.364c1.547-3.416,2.977-6.885,4.456-10.332c0.873-2.033,2.29-3.432,4.464-4.072
				c1.912-0.563,3.785-1.253,5.681-1.871c0.246-0.08,0.525-0.055,1.007-0.098c-0.178,0.548-0.279,0.938-0.43,1.308
				c-1.181,2.899-2.464,5.762-3.532,8.703c-0.754,2.078-1.559,4.232-1.741,6.402c-0.294,3.498,2.345,5.5,5.742,4.563
				c1.089-0.301,2.201-0.969,3.001-1.769c1.268-1.265,2.302-2.769,3.387-4.208c0.242-0.321,0.291-0.788,0.428-1.186
				c0.178,0.18,0.357,0.359,0.535,0.541c0.862,3.569,2.518,4.351,5.782,2.687c0.672-0.342,1.384-0.715,1.89-1.25
				c1.301-1.376,2.497-2.854,3.736-4.289c0.248-0.289,0.506-0.566,0.861-0.962c0.698,3.178,1.854,3.852,4.8,2.776
				c1.273-0.465,2.506-1.154,3.601-1.956c1.295-0.949,2.483-2.071,3.599-3.23c0.775-0.805,1.188-0.834,1.819,0.141
				c0.365,0.563,1.013,1.026,1.634,1.324c2.64,1.261,5.015,0.454,7.166-1.188c3.385-2.585,6.211-5.717,8.667-9.19
				c0.272-0.386,0.599-0.733,0.9-1.099c0.127,0.051,0.255,0.103,0.383,0.155c0,0.502,0.002,1.006-0.001,1.509
				c-0.012,1.682,0.809,2.922,2.171,3.776c2.042,1.28,4.287,1.054,6.079-0.188c2.588-1.793,4.877-4.021,7.279-6.081
				c0.375-0.321,0.672-0.733,1.117-1.226c1.327,2.534,2.912,3.411,5.483,3.099c4.995-0.606,9.05-2.965,12.323-6.741
				c3.702-4.271,6.313-9.251,9.006-14.155c1.145-2.083,2.28-3.358,4.901-2.867c1.573,0.293,1.594,0.066,0.88,1.599
				c-1.317,2.828-2.695,5.64-3.764,8.563c-0.651,1.779-0.506,3.75,1.141,5.104c1.716,1.41,3.582,0.784,5.39,0.074
				c0.176-0.069,0.341-0.167,0.511-0.252c2.116-1.062,3.546-2.829,4.817-4.742c3.6-5.417,7.182-10.846,10.787-16.261
				c0.188-0.283,0.515-0.474,0.777-0.708c0.173,0.259,0.376,0.502,0.514,0.779c0.506,1.017,0.971,2.055,1.487,3.066
				c1.445,2.825,0.611,4.595-2.398,5.07c-2.202,0.347-4.271,0.997-5.751,2.804c-0.884,1.077-1.414,2.305-0.861,3.694
				c0.569,1.429,1.809,2.185,3.246,2.176c3.885-0.022,7.243-1.333,9.692-4.518c0.33-0.43,0.689-0.838,1.036-1.255
				c0.435,0.529,0.93,1.021,1.279,1.602c0.206,0.341,0.209,0.818,0.255,1.24c0.32,2.867-1.21,4.903-3.153,6.671
				c-2.75,2.503-6.069,4.103-9.542,5.253c-5.76,1.906-11.577,3.653-17.409,5.327c-10.533,3.023-21.09,5.96-31.646,8.902
				c-8.543,2.381-17.103,4.705-25.649,7.075c-10.103,2.802-20.226,5.537-30.284,8.494c-2.921,0.859-5.85,2.054-8.421,3.662
				c-5.025,3.141-7.579,8.213-9.466,13.64c-0.45,1.292-0.816,2.614-1.22,3.923c1-0.351,1.633-0.907,2.329-1.368
				c4.207-2.79,8.903-4.471,13.701-5.862c13.543-3.93,27.106-7.796,40.664-11.681c16.205-4.642,32.404-9.312,48.622-13.907
				c7.839-2.22,15.56-4.734,22.498-9.114c4.968-3.138,9.344-6.961,11.527-12.619C185.965,46.248,184.943,42.592,180.214,39.29z
				 M126.654,47.913c1.26-3.101,2.978-5.928,5.404-8.25c0.795-0.761,1.814-1.376,2.841-1.785c1.094-0.437,1.882,0.22,1.776,1.679
				c-0.473,0.89-1.056,2.186-1.811,3.371c-1.754,2.753-4.186,4.733-7.227,5.933c-0.319,0.126-0.712,0.064-1.07,0.09
				C126.591,48.604,126.53,48.221,126.654,47.913z M111.455,44.31c2.386-6.287,5.552-12.173,9.226-17.792
				c0.513-0.786,1.169-1.494,1.844-2.152c0.255-0.249,0.835-0.442,1.11-0.315c0.281,0.128,0.559,0.707,0.51,1.04
				c-0.278,1.915-0.399,3.906-1.043,5.704c-1.985,5.543-4.771,10.652-9.171,14.703c-0.953,0.876-2.086,1.556-3.136,2.325
				c-0.16-0.125-0.318-0.251-0.479-0.376C110.696,46.401,111.061,45.35,111.455,44.31z M92.746,47.762
				c2.367-5.712,5.295-11.126,8.754-16.25c0.343-0.507,0.709-1.036,1.177-1.414c0.404-0.325,0.968-0.448,1.461-0.661
				c0.199,0.495,0.623,1.023,0.556,1.479c-0.255,1.724-0.455,3.506-1.065,5.12c-2.104,5.571-4.733,10.868-9.224,14.975
				c-0.947,0.866-2.074,1.537-3.117,2.298c-0.174-0.148-0.349-0.296-0.523-0.444C91.423,51.163,92.048,49.448,92.746,47.762z
				 M74.421,60.186c-1.772,3.967-3.309,8.066-6.089,11.5c-0.179,0.222-0.352,0.448-0.543,0.656
				c-0.723,0.781-1.614,1.739-2.636,1.139c-0.731-0.428-1.542-1.733-1.542-2.47c0-0.738,1.095-3.222,1.813-4.578
				c1.459-2.757,3.039-5.454,4.649-8.127c0.427-0.71,1.063-1.38,1.761-1.816c0.568-0.355,1.587-0.671,2.016-0.396
				c0.532,0.34,0.818,1.287,0.918,2.013C74.86,58.775,74.703,59.557,74.421,60.186z M173.729,40.543
				c-0.818,1.625-1.832,3.17-3.596,3.859c-0.624,0.243-1.667,0.168-2.141-0.221c-0.331-0.271-0.251-1.448,0.046-2.007
				c1.031-1.936,3.098-2.14,5.329-2.78C173.502,39.787,173.858,40.288,173.729,40.543z"/>
			<path fill="#C2AD7E" d="M164.042,27.222c1.785-2.325,3.209-4.856,3.629-7.811c0.199-1.395-1.119-2.145-2.402-1.547
				c-1.804,0.839-3.016,4.027-2.305,5.903C163.366,24.825,163.645,25.931,164.042,27.222z"/>
		</g>
		<g>
			<g>
				<path fill="#FFFFFF" d="M74.893,89.751v3.3l-1.909,0.515v-9.279l4.126-1.112c0.974-0.264,1.712-0.209,2.214,0.162
					c0.502,0.371,0.753,1.046,0.753,2.024c0,0.958-0.246,1.762-0.737,2.412c-0.492,0.652-1.194,1.1-2.105,1.345L74.893,89.751z
					 M74.906,88.065l1.846-0.497c0.5-0.135,0.863-0.339,1.09-0.612c0.226-0.272,0.34-0.645,0.34-1.115
					c0-0.44-0.111-0.745-0.334-0.911c-0.223-0.168-0.554-0.191-0.996-0.073l-1.946,0.525V88.065z"/>
				<path fill="#FFFFFF" d="M82.88,90.9v-9.279l1.921-0.519v3.459l3.83-1.033V80.07l1.921-0.517v9.279l-1.921,0.517v-4.112
					l-3.83,1.032v4.113L82.88,90.9z"/>
				<path fill="#FFFFFF" d="M96.101,78.057l2.205-0.594l3.345,8.378l-2.003,0.541l-0.63-1.74l-3.597,0.97l-0.611,2.074l-2.01,0.542
					L96.101,78.057z M97.21,79.617l-1.285,4.295l2.576-0.694L97.21,79.617z"/>
				<path fill="#FFFFFF" d="M103.899,85.235v-9.279l4.499-1.212c1.011-0.273,1.761-0.259,2.249,0.043
					c0.487,0.3,0.73,0.896,0.73,1.786c0,0.567-0.119,1.072-0.355,1.514c-0.238,0.441-0.58,0.792-1.024,1.051
					c0.403,0.033,0.69,0.174,0.859,0.423c0.17,0.249,0.268,0.679,0.293,1.294l0.037,1.087c0,0.008,0,0.021,0,0.037
					c0.013,0.552,0.133,0.855,0.359,0.913v0.283l-2.091,0.564c-0.067-0.113-0.119-0.26-0.154-0.44
					c-0.036-0.183-0.058-0.404-0.066-0.666l-0.025-0.97c-0.021-0.57-0.129-0.929-0.324-1.079c-0.196-0.148-0.547-0.154-1.055-0.018
					l-2.022,0.545v3.61L103.899,85.235z M105.808,79.498l2.243-0.604c0.487-0.131,0.845-0.327,1.074-0.586s0.343-0.601,0.343-1.025
					c0-0.404-0.111-0.678-0.333-0.826c-0.223-0.148-0.554-0.162-0.996-0.044l-2.331,0.628V79.498z"/>
				<path fill="#FFFFFF" d="M114.4,82.405v-9.279l2.821-0.76l1.845,6.563l1.822-7.553l2.835-0.763v9.279l-1.79,0.481V72.89
					l-1.883,7.992l-1.954,0.526l-1.908-6.969v7.483L114.4,82.405z"/>
				<path fill="#FFFFFF" d="M129.285,69.115l2.205-0.594l3.346,8.378l-2.004,0.539l-0.629-1.738l-3.598,0.968l-0.61,2.074
					l-2.01,0.542L129.285,69.115z M130.394,70.673l-1.286,4.297l2.577-0.694L130.394,70.673z"/>
				<path fill="#FFFFFF" d="M145.159,70.927c-0.071,1.075-0.478,2.021-1.219,2.842c-0.742,0.822-1.708,1.393-2.901,1.715
					c-1.374,0.369-2.441,0.229-3.204-0.422c-0.763-0.651-1.144-1.75-1.144-3.295c0-1.58,0.388-2.894,1.166-3.942
					c0.776-1.049,1.894-1.77,3.352-2.163c1.185-0.32,2.12-0.283,2.807,0.109c0.686,0.393,1.063,1.106,1.13,2.142l-1.884,0.508
					c-0.08-0.504-0.294-0.846-0.642-1.027c-0.349-0.182-0.819-0.192-1.411-0.033c-0.84,0.227-1.479,0.67-1.916,1.329
					c-0.436,0.66-0.654,1.511-0.654,2.552c0,1.007,0.217,1.728,0.652,2.162c0.434,0.432,1.052,0.541,1.855,0.325
					c0.579-0.157,1.054-0.433,1.423-0.829c0.37-0.396,0.609-0.885,0.718-1.468L145.159,70.927z"/>
				<path fill="#FFFFFF" d="M152.124,72.238l-1.908,0.515v-3.458l-3.372-4.913l2.338-0.629l1.984,3.464L153,62.724l2.18-0.588
					l-3.056,6.644V72.238z"/>
			</g>
			<circle fill="#FFFFFF" cx="64.765" cy="91.196" r="1.573"/>
			<circle fill="#FFFFFF" cx="163.197" cy="62.794" r="1.573"/>
		</g>
		<g>
			<g>
				<path d="M74.526,90.117v3.302l-1.909,0.515v-9.279l4.126-1.113c0.975-0.262,1.713-0.208,2.215,0.162
					c0.501,0.372,0.752,1.046,0.752,2.026c0,0.956-0.246,1.761-0.737,2.412c-0.491,0.651-1.192,1.1-2.104,1.345L74.526,90.117z
					 M74.539,88.433l1.845-0.497c0.5-0.136,0.863-0.339,1.09-0.612c0.227-0.274,0.34-0.645,0.34-1.116
					c0-0.44-0.112-0.745-0.334-0.911c-0.222-0.167-0.554-0.192-0.995-0.073l-1.947,0.524V88.433z"/>
				<path d="M82.512,91.266v-9.279l1.921-0.518v3.458l3.831-1.032v-3.458l1.922-0.517v9.278l-1.922,0.519v-4.115l-3.831,1.032v4.115
					L82.512,91.266z"/>
				<path d="M95.734,78.424l2.205-0.594l3.345,8.378l-2.003,0.539l-0.63-1.739l-3.598,0.97l-0.611,2.072l-2.01,0.542L95.734,78.424z
					 M96.843,79.983l-1.285,4.296l2.577-0.694L96.843,79.983z"/>
				<path d="M103.532,85.601v-9.279l4.498-1.211c1.013-0.273,1.762-0.258,2.249,0.042c0.487,0.302,0.731,0.897,0.731,1.788
					c0,0.567-0.12,1.071-0.357,1.514c-0.237,0.44-0.578,0.792-1.024,1.05c0.404,0.034,0.69,0.175,0.86,0.424
					c0.17,0.249,0.268,0.68,0.292,1.294l0.039,1.085c0,0.008,0,0.021,0,0.038c0.012,0.55,0.131,0.855,0.359,0.911v0.284
					l-2.091,0.563c-0.067-0.111-0.119-0.259-0.155-0.44c-0.035-0.181-0.057-0.403-0.065-0.666l-0.025-0.97
					c-0.021-0.568-0.129-0.928-0.325-1.077c-0.195-0.148-0.547-0.155-1.055-0.018l-2.023,0.545v3.61L103.532,85.601z M105.44,79.865
					l2.244-0.605c0.487-0.13,0.846-0.325,1.074-0.584c0.229-0.259,0.343-0.601,0.343-1.025c0-0.403-0.111-0.68-0.334-0.828
					c-0.223-0.147-0.555-0.162-0.995-0.042l-2.332,0.628V79.865z"/>
				<path d="M114.033,82.771v-9.279l2.822-0.76l1.846,6.565l1.82-7.553l2.835-0.765v9.28l-1.789,0.482v-7.484l-1.884,7.992
					l-1.952,0.525l-1.909-6.97v7.484L114.033,82.771z"/>
				<path d="M128.917,69.481l2.206-0.594l3.344,8.378l-2.002,0.541l-0.63-1.74l-3.597,0.97l-0.611,2.074l-2.009,0.542
					L128.917,69.481z M130.026,71.042l-1.286,4.295l2.578-0.694L130.026,71.042z"/>
				<path d="M144.792,71.295c-0.073,1.074-0.479,2.021-1.22,2.842c-0.741,0.822-1.708,1.393-2.901,1.714
					c-1.373,0.371-2.44,0.229-3.203-0.421c-0.763-0.652-1.144-1.75-1.144-3.296c0-1.578,0.389-2.893,1.166-3.943
					c0.777-1.048,1.894-1.77,3.351-2.163c1.185-0.319,2.12-0.283,2.807,0.11c0.687,0.393,1.063,1.107,1.131,2.143l-1.884,0.507
					c-0.079-0.502-0.294-0.845-0.643-1.026c-0.348-0.181-0.818-0.192-1.411-0.032c-0.84,0.225-1.478,0.668-1.915,1.329
					c-0.438,0.66-0.656,1.509-0.656,2.551c0,1.008,0.218,1.729,0.652,2.161c0.435,0.433,1.054,0.542,1.855,0.325
					c0.581-0.155,1.054-0.433,1.424-0.828c0.369-0.396,0.609-0.885,0.717-1.47L144.792,71.295z"/>
				<path d="M151.758,72.606l-1.909,0.514v-3.458l-3.371-4.913l2.337-0.63l1.985,3.465l1.833-4.494l2.179-0.588l-3.055,6.645V72.606
					z"/>
			</g>
			<circle cx="64.397" cy="91.564" r="1.572"/>
			<circle cx="162.83" cy="63.162" r="1.573"/>
		</g>
	</g>
	<g>
		<path fill="#C2AD7E" d="M137.438,83.362c-0.288-0.093-0.597-0.14-0.927-0.14c-0.606,0-1.106,0.146-1.501,0.437
			c-0.395,0.292-0.592,0.679-0.592,1.161c0,0.241,0.045,0.449,0.137,0.622c0.091,0.173,0.214,0.327,0.368,0.461
			c0.152,0.133,0.325,0.251,0.516,0.353c0.19,0.101,0.389,0.201,0.595,0.297c0.225,0.113,0.44,0.232,0.644,0.358
			c0.204,0.126,0.384,0.271,0.54,0.431c0.155,0.162,0.28,0.347,0.375,0.557c0.095,0.21,0.143,0.456,0.143,0.735
			c0,0.397-0.081,0.754-0.242,1.071c-0.161,0.316-0.403,0.589-0.726,0.819c-0.646,0.447-1.462,0.67-2.45,0.67
			c-0.758,0-1.444-0.101-2.059-0.304l-0.023-0.046l0.643-1.983l0.267-0.041l0.105,1.708c0.377,0.121,0.764,0.181,1.16,0.181
			c0.654,0,1.18-0.15,1.578-0.446c0.399-0.298,0.599-0.697,0.599-1.199c0-0.249-0.044-0.46-0.132-0.635
			c-0.087-0.175-0.205-0.33-0.353-0.464c-0.148-0.134-0.32-0.253-0.516-0.358c-0.196-0.105-0.402-0.212-0.615-0.321
			c-0.226-0.109-0.439-0.229-0.639-0.361c-0.201-0.133-0.378-0.282-0.534-0.45c-0.155-0.167-0.28-0.358-0.374-0.574
			c-0.093-0.217-0.14-0.46-0.14-0.733c0-0.727,0.316-1.314,0.948-1.761c0.631-0.447,1.432-0.671,2.4-0.671
			c0.583,0,1.18,0.074,1.791,0.222L138.459,83l-0.653,1.82l-0.239,0.041L137.438,83.362z"/>
		<path fill="#C2AD7E" d="M140.004,90.081c-0.02,0.078-0.029,0.147-0.029,0.21c0,0.155,0.064,0.257,0.192,0.306
			c0.129,0.048,0.347,0.073,0.653,0.073l-0.017,0.228c-0.506,0.163-0.898,0.245-1.178,0.245c-0.218,0-0.388-0.057-0.51-0.169
			c-0.122-0.113-0.184-0.284-0.184-0.514c0-0.108,0.016-0.245,0.046-0.408l0.7-3.399c0.012-0.067,0.022-0.124,0.033-0.173
			c0.009-0.048,0.013-0.092,0.013-0.131c0-0.105-0.043-0.179-0.134-0.222c-0.09-0.042-0.319-0.063-0.688-0.063l0.018-0.222
			c0.528-0.179,0.942-0.268,1.242-0.268c0.198,0,0.353,0.046,0.463,0.136c0.112,0.092,0.167,0.234,0.167,0.43
			c0,0.081-0.008,0.16-0.023,0.239L140.004,90.081z M141.3,83.466c0,0.202-0.063,0.366-0.187,0.493
			c-0.125,0.127-0.28,0.189-0.467,0.189c-0.183,0-0.333-0.059-0.453-0.178c-0.118-0.119-0.177-0.271-0.177-0.458
			c0-0.206,0.062-0.369,0.187-0.49c0.124-0.12,0.281-0.181,0.472-0.181c0.183,0,0.332,0.056,0.449,0.167
			C141.241,83.119,141.3,83.272,141.3,83.466z"/>
		<path fill="#C2AD7E" d="M142.046,91.066l0.91-4.404c0.031-0.167,0.046-0.272,0.046-0.314c0-0.105-0.045-0.179-0.134-0.222
			c-0.09-0.042-0.319-0.063-0.689-0.063l0.018-0.222c0.521-0.179,0.936-0.268,1.242-0.268c0.194,0,0.347,0.047,0.458,0.143
			c0.111,0.095,0.166,0.228,0.166,0.399c0,0.047-0.003,0.101-0.011,0.163c0.758-0.479,1.434-0.718,2.03-0.718
			c0.412,0,0.729,0.109,0.951,0.327c0.222,0.218,0.333,0.513,0.333,0.887c0,0.175-0.022,0.354-0.064,0.536l-0.601,2.771
			c-0.008,0.042-0.014,0.081-0.017,0.117c-0.003,0.034-0.006,0.065-0.006,0.093c0,0.155,0.065,0.257,0.193,0.306
			c0.128,0.048,0.346,0.073,0.653,0.073l-0.017,0.228c-0.494,0.163-0.889,0.245-1.184,0.245c-0.225,0-0.399-0.055-0.522-0.167
			c-0.122-0.111-0.184-0.283-0.184-0.516c0-0.108,0.016-0.245,0.047-0.408l0.571-2.526c0.036-0.167,0.053-0.322,0.053-0.466
			c0-0.244-0.063-0.434-0.187-0.568c-0.125-0.134-0.333-0.202-0.624-0.202c-0.466,0-0.973,0.16-1.517,0.479l-0.863,4.24
			L142.046,91.066z"/>
		<path fill="#C2AD7E" d="M152.643,89.975l0.128,0.199c-0.283,0.303-0.624,0.543-1.018,0.721c-0.395,0.176-0.778,0.265-1.152,0.265
			c-0.586,0-1.07-0.199-1.449-0.599c-0.38-0.398-0.569-0.939-0.569-1.623c0-0.957,0.329-1.758,0.989-2.403
			c0.659-0.646,1.453-0.969,2.382-0.969c0.506,0,0.99,0.103,1.453,0.309c-0.144,0.548-0.263,1.071-0.356,1.569l-0.227,0.034
			l-0.443-1.358c-0.164-0.047-0.335-0.07-0.513-0.07c-0.638,0-1.162,0.262-1.572,0.788c-0.41,0.524-0.615,1.164-0.615,1.918
			c0,0.542,0.129,0.958,0.388,1.252c0.259,0.293,0.625,0.44,1.1,0.44C151.599,90.448,152.091,90.291,152.643,89.975z"/>
		<path fill="#C2AD7E" d="M155.081,88.494c-0.016,0.136-0.023,0.266-0.023,0.39c0,0.502,0.123,0.887,0.367,1.158
			c0.246,0.27,0.592,0.406,1.039,0.406c0.509,0,1.03-0.144,1.563-0.432l0.128,0.205c-0.264,0.284-0.602,0.512-1.012,0.685
			c-0.41,0.173-0.818,0.259-1.222,0.259c-0.586,0-1.06-0.197-1.42-0.591c-0.359-0.395-0.539-0.905-0.539-1.532
			c0-0.311,0.037-0.612,0.113-0.903c0.076-0.292,0.183-0.567,0.321-0.826c0.139-0.258,0.303-0.495,0.496-0.708
			c0.192-0.214,0.408-0.399,0.647-0.555c0.239-0.155,0.497-0.276,0.773-0.361c0.276-0.086,0.566-0.128,0.869-0.128
			c0.479,0,0.845,0.102,1.1,0.306c0.254,0.204,0.382,0.472,0.382,0.802c-0.004,0.59-0.366,1.035-1.087,1.333
			C156.854,88.298,156.021,88.462,155.081,88.494z M155.145,88.068c0.829-0.054,1.451-0.2,1.866-0.437
			c0.417-0.237,0.625-0.542,0.625-0.916c0-0.206-0.062-0.367-0.187-0.483c-0.125-0.117-0.294-0.176-0.508-0.176
			c-0.396,0-0.759,0.18-1.087,0.539C155.524,86.955,155.289,87.446,155.145,88.068z"/>
		<path fill="#C2AD7E" d="M162.395,86.125l0.018-0.244c0.766-0.117,1.532-0.246,2.297-0.385l0.041,0.046
			c-0.171,0.681-0.326,1.383-0.466,2.105l-0.28,1.481c-0.102,0.514-0.177,0.928-0.228,1.242c-0.019,0.113,0.018,0.183,0.111,0.209
			l0.875,0.24l-0.023,0.233c-0.7-0.012-1.23-0.017-1.593-0.017c-0.361,0-0.887,0.005-1.574,0.017l0.023-0.233l0.944-0.24
			c0.097-0.026,0.158-0.089,0.181-0.187c0.07-0.314,0.14-0.664,0.21-1.049l0.198-1.027c0.147-0.781,0.272-1.473,0.373-2.076
			L162.395,86.125z"/>
		<path fill="#C2AD7E" d="M165.445,93.293c2.142-0.225,3.594-1.37,4.357-3.435l-0.012-0.006c-0.475,0.513-1.063,0.77-1.767,0.77
			c-0.607,0-1.1-0.189-1.481-0.568c-0.382-0.38-0.572-0.875-0.572-1.485c0-0.84,0.299-1.562,0.896-2.167
			c0.596-0.605,1.311-0.907,2.143-0.907c0.711,0,1.266,0.224,1.665,0.67c0.398,0.447,0.598,1.078,0.598,1.89
			c0,0.411-0.056,0.831-0.167,1.257c-0.11,0.425-0.276,0.84-0.496,1.244c-0.219,0.405-0.493,0.789-0.819,1.153
			c-0.327,0.363-0.705,0.686-1.135,0.967c-0.429,0.282-0.91,0.513-1.443,0.694s-1.114,0.292-1.744,0.335L165.445,93.293z
			 M167.136,88.511c0.008,0.506,0.125,0.897,0.35,1.176c0.226,0.277,0.544,0.417,0.957,0.417c0.517,0,0.94-0.22,1.269-0.659
			c0.328-0.44,0.493-1.01,0.493-1.709c0-0.571-0.113-1.014-0.339-1.327c-0.225-0.313-0.532-0.469-0.921-0.469
			c-0.529,0-0.963,0.251-1.301,0.752C167.305,87.193,167.136,87.8,167.136,88.511z"/>
		<path fill="#C2AD7E" d="M171.178,93.708l0.023-0.431c0.583-0.012,1.127-0.08,1.633-0.205c0.505-0.125,0.942-0.298,1.313-0.521
			c0.369-0.224,0.66-0.493,0.871-0.809c0.212-0.315,0.318-0.671,0.318-1.067c0-0.552-0.201-0.997-0.601-1.333
			c-0.401-0.336-1.107-0.555-2.118-0.656l-0.028-0.041l0.857-3.021c0.412,0.015,0.962,0.023,1.65,0.023
			c0.813,0,1.435-0.008,1.866-0.023l0.017,0.047l-0.309,0.938l-2.963-0.082l-0.397,1.336c1.042,0.101,1.835,0.374,2.377,0.817
			c0.542,0.443,0.814,1.016,0.814,1.72c0,0.347-0.066,0.668-0.196,0.966c-0.13,0.298-0.313,0.567-0.55,0.811
			c-0.237,0.243-0.52,0.458-0.849,0.646c-0.328,0.189-0.689,0.348-1.082,0.479c-0.393,0.13-0.813,0.229-1.263,0.298
			C172.114,93.667,171.652,93.704,171.178,93.708z"/>
		<path fill="#C2AD7E" d="M177.704,93.387l4.451-6.859h-3.511l-0.53,1.155l-0.246,0.041l0.292-2.053l0.052-0.047
			c0.435,0.008,0.859,0.014,1.271,0.018c0.412,0.003,0.816,0.006,1.213,0.006h0.367c0.401,0,0.784-0.002,1.149-0.006
			s0.72-0.01,1.061-0.018l-0.023,0.25c-0.272,0.417-0.548,0.843-0.828,1.283c-0.28,0.439-0.556,0.883-0.831,1.333
			c-0.274,0.449-0.542,0.894-0.806,1.335c-0.262,0.441-0.512,0.871-0.749,1.289c-0.237,0.418-0.458,0.818-0.664,1.199
			c-0.207,0.381-0.39,0.732-0.549,1.056l-1.097,0.058L177.704,93.387z"/>
	</g>
</g>
<g>
</g>
<g>
</g>
<g>
</g>
<g>
</g>
<g>
</g>
<g>
</g>
</svg>
